<?xml version="1.0" encoding="UTF-8" ?>
<svg version="1.1" width="32" height="32" xmlns="http://www.w3.org/2000/svg" shape-rendering="crispEdges">
<rect x="15" y="5" width="4" height="1" fill="#005500" />
<rect x="14" y="6" width="1" height="1" fill="#005500" />
<rect x="15" y="6" width="2" height="1" fill="#FF0000" />
<rect x="17" y="6" width="2" height="2" fill="#AA0000" />
<rect x="19" y="6" width="1" height="3" fill="#005500" />
<rect x="13" y="7" width="1" height="1" fill="#005500" />
<rect x="14" y="7" width="1" height="1" fill="#FF0000" />
<rect x="15" y="7" width="2" height="1" fill="#AA0000" />
<rect x="12" y="8" width="1" height="3" fill="#005500" />
<rect x="13" y="8" width="1" height="1" fill="#FF0000" />
<rect x="14" y="8" width="2" height="1" fill="#AA0000" />
<rect x="16" y="8" width="3" height="1" fill="#005500" />
<rect x="20" y="8" width="1" height="2" fill="#005500" />
<rect x="11" y="9" width="1" height="1" fill="#005500" />
<rect x="13" y="9" width="2" height="1" fill="#AA0000" />
<rect x="15" y="9" width="2" height="1" fill="#005500" />
<rect x="17" y="9" width="3" height="1" fill="#55FF55" />
<rect x="10" y="10" width="1" height="1" fill="#005500" />
<rect x="11" y="10" width="1" height="1" fill="#55FF55" />
<rect x="13" y="10" width="3" height="1" fill="#005500" />
<rect x="16" y="10" width="1" height="1" fill="#55FF55" />
<rect x="20" y="10" width="1" height="1" fill="#55FF55" />
<rect x="21" y="10" width="1" height="1" fill="#005500" />
<rect x="9" y="11" width="1" height="6" fill="#005500" />
<rect x="10" y="11" width="1" height="1" fill="#55FF55" />
<rect x="21" y="11" width="1" height="6" fill="#55FF55" />
<rect x="22" y="11" width="1" height="6" fill="#005500" />
<rect x="12" y="12" width="3" height="1" fill="#00AA00" />
<rect x="16" y="12" width="3" height="1" fill="#00AA00" />
<rect x="13" y="13" width="1" height="1" fill="#55FF00" />
<rect x="17" y="13" width="1" height="1" fill="#55FF00" />
<rect x="13" y="15" width="3" height="1" fill="#FFFF00" />
<rect x="16" y="15" width="1" height="2" fill="#AAAA00" />
<rect x="10" y="16" width="1" height="1" fill="#55FF55" />
<rect x="13" y="16" width="3" height="1" fill="#AAAA00" />
<rect x="20" y="16" width="1" height="2" fill="#55FF55" />
<rect x="10" y="17" width="1" height="1" fill="#005500" />
<rect x="21" y="17" width="1" height="3" fill="#005500" />
<rect x="11" y="18" width="10" height="1" fill="#005500" />
<rect x="10" y="19" width="2" height="1" fill="#005500" />
<rect x="20" y="19" width="1" height="1" fill="#55FF55" />
<rect x="22" y="19" width="1" height="5" fill="#005500" />
<rect x="10" y="20" width="1" height="4" fill="#005500" />
<rect x="11" y="20" width="1" height="3" fill="#55FF55" />
<rect x="17" y="20" width="1" height="4" fill="#55FF55" />
<rect x="21" y="20" width="1" height="3" fill="#55FF55" />
<rect x="18" y="21" width="1" height="4" fill="#005500" />
<rect x="12" y="22" width="1" height="2" fill="#55FF55" />
<rect x="11" y="23" width="1" height="2" fill="#005500" />
<rect x="13" y="23" width="4" height="1" fill="#55FF55" />
<rect x="19" y="23" width="2" height="1" fill="#55FF55" />
<rect x="21" y="23" width="1" height="2" fill="#005500" />
<rect x="12" y="24" width="6" height="1" fill="#005500" />
<rect x="19" y="24" width="2" height="1" fill="#005500" />
<rect x="12" y="25" width="1" height="1" fill="#005500" />
<rect x="13" y="25" width="1" height="1" fill="#55FF55" />
<rect x="14" y="25" width="1" height="1" fill="#55AA00" />
<rect x="15" y="25" width="2" height="1" fill="#005500" />
<rect x="17" y="25" width="1" height="1" fill="#55FF55" />
<rect x="18" y="25" width="1" height="1" fill="#55AA00" />
<rect x="19" y="25" width="1" height="3" fill="#005500" />
<rect x="13" y="26" width="1" height="1" fill="#005500" />
<rect x="14" y="26" width="1" height="1" fill="#55FF55" />
<rect x="15" y="26" width="1" height="2" fill="#005500" />
<rect x="17" y="26" width="1" height="1" fill="#005500" />
<rect x="18" y="26" width="1" height="1" fill="#55FF55" />
<rect x="14" y="27" width="1" height="1" fill="#005500" />
<rect x="18" y="27" width="1" height="1" fill="#005500" />
</svg>