<?xml version="1.0" encoding="UTF-8" ?>
<svg version="1.1" width="128" height="128" xmlns="http://www.w3.org/2000/svg" shape-rendering="crispEdges">
<rect x="52" y="16" width="16" height="4" fill="#005500" />
<rect x="48" y="20" width="4" height="12" fill="#005500" />
<rect x="52" y="20" width="4" height="8" fill="#550000" />
<rect x="56" y="20" width="4" height="4" fill="#AA0000" />
<rect x="60" y="20" width="8" height="4" fill="#FF0000" />
<rect x="68" y="20" width="4" height="4" fill="#005500" />
<rect x="56" y="24" width="8" height="4" fill="#550000" />
<rect x="64" y="24" width="4" height="4" fill="#AA0000" />
<rect x="68" y="24" width="4" height="4" fill="#FF0000" />
<rect x="72" y="24" width="4" height="4" fill="#005500" />
<rect x="44" y="28" width="4" height="8" fill="#005500" />
<rect x="52" y="28" width="12" height="4" fill="#005500" />
<rect x="64" y="28" width="4" height="4" fill="#550000" />
<rect x="68" y="28" width="4" height="4" fill="#AA0000" />
<rect x="72" y="28" width="4" height="4" fill="#FF0000" />
<rect x="76" y="28" width="4" height="12" fill="#005500" />
<rect x="48" y="32" width="12" height="4" fill="#55FF55" />
<rect x="60" y="32" width="8" height="4" fill="#005500" />
<rect x="68" y="32" width="8" height="4" fill="#550000" />
<rect x="80" y="32" width="4" height="4" fill="#005500" />
<rect x="40" y="36" width="4" height="4" fill="#005500" />
<rect x="44" y="36" width="4" height="4" fill="#55FF55" />
<rect x="60" y="36" width="4" height="4" fill="#55FF55" />
<rect x="64" y="36" width="12" height="4" fill="#005500" />
<rect x="80" y="36" width="4" height="4" fill="#55FF55" />
<rect x="84" y="36" width="4" height="4" fill="#005500" />
<rect x="36" y="40" width="4" height="24" fill="#005500" />
<rect x="40" y="40" width="4" height="24" fill="#55FF55" />
<rect x="84" y="40" width="4" height="4" fill="#55FF55" />
<rect x="88" y="40" width="4" height="24" fill="#005500" />
<rect x="52" y="44" width="12" height="4" fill="#00AA00" />
<rect x="68" y="44" width="12" height="4" fill="#00AA00" />
<rect x="56" y="48" width="4" height="4" fill="#55FF00" />
<rect x="72" y="48" width="4" height="4" fill="#55FF00" />
<rect x="60" y="56" width="4" height="8" fill="#AAAA00" />
<rect x="64" y="56" width="12" height="4" fill="#FFFF00" />
<rect x="44" y="60" width="4" height="8" fill="#55FF55" />
<rect x="64" y="60" width="12" height="4" fill="#AAAA00" />
<rect x="84" y="60" width="4" height="4" fill="#55FF55" />
<rect x="40" y="64" width="4" height="12" fill="#005500" />
<rect x="84" y="64" width="4" height="4" fill="#005500" />
<rect x="44" y="68" width="40" height="4" fill="#005500" />
<rect x="36" y="72" width="4" height="20" fill="#005500" />
<rect x="44" y="72" width="4" height="4" fill="#55FF55" />
<rect x="80" y="72" width="8" height="4" fill="#005500" />
<rect x="40" y="76" width="4" height="12" fill="#55FF55" />
<rect x="56" y="76" width="4" height="16" fill="#55FF55" />
<rect x="80" y="76" width="4" height="12" fill="#55FF55" />
<rect x="84" y="76" width="4" height="16" fill="#005500" />
<rect x="52" y="80" width="4" height="16" fill="#005500" />
<rect x="76" y="84" width="4" height="8" fill="#55FF55" />
<rect x="40" y="88" width="4" height="8" fill="#005500" />
<rect x="44" y="88" width="8" height="4" fill="#55FF55" />
<rect x="60" y="88" width="16" height="4" fill="#55FF55" />
<rect x="80" y="88" width="4" height="8" fill="#005500" />
<rect x="44" y="92" width="8" height="4" fill="#005500" />
<rect x="56" y="92" width="24" height="4" fill="#005500" />
<rect x="48" y="96" width="4" height="12" fill="#005500" />
<rect x="52" y="96" width="4" height="4" fill="#55AA00" />
<rect x="56" y="96" width="4" height="4" fill="#55FF55" />
<rect x="60" y="96" width="8" height="4" fill="#005500" />
<rect x="68" y="96" width="4" height="4" fill="#55AA00" />
<rect x="72" y="96" width="4" height="4" fill="#55FF55" />
<rect x="76" y="96" width="4" height="4" fill="#005500" />
<rect x="52" y="100" width="4" height="4" fill="#55FF55" />
<rect x="56" y="100" width="4" height="4" fill="#005500" />
<rect x="64" y="100" width="4" height="8" fill="#005500" />
<rect x="68" y="100" width="4" height="4" fill="#55FF55" />
<rect x="72" y="100" width="4" height="4" fill="#005500" />
<rect x="52" y="104" width="4" height="4" fill="#005500" />
<rect x="68" y="104" width="4" height="4" fill="#005500" />
</svg>